<?xml version="1.0" encoding="iso-8859-1"?>
<!-- Uploaded to: SVG Repo, www.svgrepo.com, Generator: SVG Repo Mixer Tools -->
<svg height="800px" width="800px" version="1.1" id="Layer_1" xmlns="http://www.w3.org/2000/svg" xmlns:xlink="http://www.w3.org/1999/xlink" 
	 viewBox="0 0 512 512" xml:space="preserve">
<g>
	<g>
		<polygon style="fill:#5E5F62;" points="34.132,499.2 85.332,499.2 85.332,379.733 34.132,379.733 		"/>
		<polygon style="fill:#5E5F62;" points="426.666,499.2 477.866,499.2 477.866,379.733 426.666,379.733 		"/>
	</g>
	<polygon style="fill:#A5A5A4;" points="8.532,379.733 503.466,379.733 503.466,277.333 8.532,277.333 	"/>
	<path style="fill:#3C4660;" d="M503.467,507.733H8.533C3.823,507.733,0,503.91,0,499.2s3.823-8.533,8.533-8.533h494.933
		c4.71,0,8.533,3.823,8.533,8.533S508.177,507.733,503.467,507.733"/>
	<polygon style="fill:#5E5F62;" points="332.799,277.333 503.466,277.333 503.466,4.267 332.799,4.267 	"/>
	<g>
		<polygon style="fill:#D1D1CD;" points="366.932,106.667 469.333,106.667 469.333,38.4 366.932,38.4 		"/>
		<path style="fill:#D1D1CD;" d="M366.933,174.933c-4.71,0-8.533-3.823-8.533-8.533v-25.6c0-4.71,3.823-8.533,8.533-8.533
			c4.71,0,8.533,3.823,8.533,8.533v25.6C375.467,171.11,371.644,174.933,366.933,174.933"/>
		<path style="fill:#D1D1CD;" d="M469.333,174.933c-4.71,0-8.533-3.823-8.533-8.533v-25.6c0-4.71,3.823-8.533,8.533-8.533
			c4.71,0,8.533,3.823,8.533,8.533v25.6C477.867,171.11,474.044,174.933,469.333,174.933"/>
		<path style="fill:#D1D1CD;" d="M435.2,174.933c-4.71,0-8.533-3.823-8.533-8.533v-25.6c0-4.71,3.823-8.533,8.533-8.533
			c4.71,0,8.533,3.823,8.533,8.533v25.6C443.733,171.11,439.91,174.933,435.2,174.933"/>
		<path style="fill:#D1D1CD;" d="M401.067,174.933c-4.71,0-8.533-3.823-8.533-8.533v-25.6c0-4.71,3.823-8.533,8.533-8.533
			c4.71,0,8.533,3.823,8.533,8.533v25.6C409.6,171.11,405.777,174.933,401.067,174.933"/>
		<polygon style="fill:#D1D1CD;" points="366.932,234.667 401.066,234.667 401.066,200.533 366.932,200.533 		"/>
		<polygon style="fill:#D1D1CD;" points="435.199,234.667 469.333,234.667 469.333,200.533 435.199,200.533 		"/>
	</g>
	<g>
		<path style="fill:#5E5F62;" d="M102.4,328.533c0,9.429-7.637,17.067-17.067,17.067s-17.067-7.637-17.067-17.067
			c0-9.429,7.637-17.067,17.067-17.067S102.4,319.104,102.4,328.533"/>
		<path style="fill:#5E5F62;" d="M170.667,328.533c0,9.429-7.637,17.067-17.067,17.067s-17.067-7.637-17.067-17.067
			c0-9.429,7.637-17.067,17.067-17.067S170.667,319.104,170.667,328.533"/>
		<path style="fill:#5E5F62;" d="M238.933,328.533c0,9.429-7.637,17.067-17.067,17.067c-9.429,0-17.067-7.637-17.067-17.067
			c0-9.429,7.637-17.067,17.067-17.067C231.296,311.467,238.933,319.104,238.933,328.533"/>
		<path style="fill:#5E5F62;" d="M307.2,328.533c0,9.429-7.637,17.067-17.067,17.067c-9.429,0-17.067-7.637-17.067-17.067
			c0-9.429,7.637-17.067,17.067-17.067C299.563,311.467,307.2,319.104,307.2,328.533"/>
		<path style="fill:#5E5F62;" d="M375.467,328.533c0,9.429-7.637,17.067-17.067,17.067c-9.429,0-17.067-7.637-17.067-17.067
			c0-9.429,7.637-17.067,17.067-17.067C367.829,311.467,375.467,319.104,375.467,328.533"/>
		<path style="fill:#5E5F62;" d="M443.733,328.533c0,9.429-7.637,17.067-17.067,17.067s-17.067-7.637-17.067-17.067
			c0-9.429,7.637-17.067,17.067-17.067S443.733,319.104,443.733,328.533"/>
	</g>
	<polygon style="fill:#D1D1CD;" points="8.532,277.333 332.799,277.333 332.799,4.267 8.532,4.267 	"/>
	<polygon style="fill:#5E5F62;" points="8.532,277.333 59.732,277.333 59.732,4.267 8.532,4.267 	"/>
	<g>
		<polygon style="fill:#A5A5A4;" points="136.532,89.6 255.999,89.6 255.999,4.267 136.532,4.267 		"/>
		<polygon style="fill:#A5A5A4;" points="170.666,174.933 221.866,174.933 221.866,140.8 170.666,140.8 		"/>
	</g>
	<g>
		<polygon style="fill:#5E5F62;" points="238.933,140.8 153.6,140.8 136.533,89.6 256,89.6 		"/>
		<polygon style="fill:#5E5F62;" points="136.532,277.333 255.999,277.333 255.999,234.667 136.532,234.667 		"/>
	</g>
</g>
</svg>